Patient4_TMGait_0pt3_03_right_27_EMG.mot
version=1
nRows=16
nColumns=33
inDegrees=no
endheader
time	1LAddLong	2LGlutMax	3LGlutMed	4LIliopsoas	5LSemiMemb	6LBicFemLong	7LRecFem	8LVastMed	9LVastLat	10LGasMed	11LTibAnt	12lTibPost	13LPeroneusLong	14LSol	15LExtDigLong	16LFlexDigLong	17RAddLong	18RGlutMax	19RGlutMed	20RIliopsoas	21RSemiMemb	22RBicFemLong	23RRecFem	24RVastMed	25RVastLat	26RGasMed	27RTibAnt	28RTibPost	29RPeroneusLong	30RSol	31RExtDigLong	32RFlexDigLong
51.75	0.027618	-0.029297	-0.1355	0.00412	-0.16266	-0.045166	0.047913	0.002289	-0.11383	-0.028381	-0.035858	0.007782	0.080261	0.094604	-0.26855	0.000916	-0.008392	-0.042114	0.024567	-0.004272	0.070496	0.06546	-0.036774	0.03479	0.075531	0.005798	0.055695	-0.006866	-0.11795	0.056915	-0.003815	-0.017548
51.751	0.009308	-0.030823	-0.15457	0.004578	-0.02655	-0.028992	0.008392	-0.006866	-0.074921	-0.001678	0.084686	0.00946	0.042725	-0.014343	-0.33691	0.007935	-0.004425	-0.049744	0.14069	-0.015411	0.11017	0.015259	-0.08255	0.008087	0.007629	0.006409	0.046234	-0.010071	-0.11276	0.006561	-0.003204	-0.014191
51.752	0.002594	-0.038605	-0.070038	0.009003	0.074005	0.016327	-0.036926	-0.003967	0.014954	0.014648	0.030823	0.007935	0.014801	-0.060272	-0.23834	-0.001373	0.011597	-0.09079	0.28976	0.012054	-0.023346	0.013428	-0.022125	-0.06012	-0.054779	0.005035	0.054626	-0.005493	-0.10971	-0.028839	-0.000916	-0.013885
51.753	-0.002899	-0.055695	-0.059662	0.017548	0.026703	0.056915	-0.045624	-0.005646	0.011139	0.009003	-0.065613	0.007935	0.025787	-0.054016	-0.13855	-0.004578	0.021057	-0.052643	0.075531	0.051117	0.13336	-0.037537	-0.20676	-0.07309	-0.085449	-0.006256	0.043793	-0.007477	-0.06546	-0.050049	0.000305	-0.00885
51.754	0.003052	-0.042267	-0.041199	-0.009003	0.049133	0.038452	-0.03952	0.009003	-0.014648	0.031738	-0.006104	0.015411	-0.013123	-0.016479	0.071411	-0.005493	0.007935	-0.10941	0.094299	-0.00473	0.067902	0.023041	-0.27313	-0.12482	-0.06485	0.000763	-0.00061	-0.006561	0.012512	-0.013275	-0.00061	-0.009918
51.755	0.007782	-0.000153	-0.052795	-0.002899	0.047302	0.014038	0.010986	-0.003357	0.007019	0.015564	-0.048218	0.002594	0.000763	0.021667	0.13092	-0.008698	0.007935	-0.039368	0.016785	-0.007172	0.041199	0.066528	-0.15839	-0.14328	-0.009003	0.002289	-0.005798	-0.005646	0.026093	0.018311	-0.000153	-0.008545
51.756	0.02121	0.074615	-0.051575	-0.000763	0.020905	0.033264	0.023041	-0.014191	0.003204	-0.024567	-0.042877	0.006409	0.045929	0.09613	0.13809	-0.022888	0.018005	-0.063934	-0.010529	-0.010681	0.046692	0.061646	-0.098877	-0.070801	0.086975	0.003357	0.031433	-0.008392	-0.10864	-0.016327	-0.003357	-0.007629
51.757	0.034637	0.11368	-0.049133	0.00351	0.098724	0.059967	0.063324	-0.009766	0.007172	-0.023041	-0.066528	0.00473	0.04715	0.12054	0.17777	-0.02594	-0.009003	0.00412	-0.038605	-0.035248	-0.010376	0.052338	-0.16342	-0.000153	0.14847	0.003204	0.053711	-0.004883	-0.063324	-0.022888	-0.001526	-0.011902
51.758	0.026093	0.078583	-0.032501	0.03006	0.090942	0.10132	0.11383	0.021667	0.070496	-0.045929	-0.095978	0.000916	0.092163	0.10239	0.24262	-0.00473	0.003815	-0.098572	0.011444	-0.001678	-0.029755	-0.013885	-0.15991	-0.046082	0.1831	0.000153	0.070801	-0.007019	0.016022	-0.015259	-0.002136	-0.010376
51.759	0.023499	0.090027	-0.037384	0.016327	0.034332	0.070801	0.067444	-0.014496	0.15045	-0.02594	-0.062561	0.010071	0.06073	0.023041	-0.080414	-0.022888	0.033417	-0.1532	0.041962	0.061646	-0.00061	-0.054169	-0.020294	-0.028076	0.13321	0.002899	0.049133	-0.002899	0.002594	-0.00473	-0.002136	-0.01358
51.76	0.006866	0.13046	0.036926	0.009003	-0.024261	0.012665	-0.006256	0.018311	0.25711	-0.01236	0.011597	-0.011292	-0.020447	0.050049	-0.10849	-0.018005	0.037842	-0.10849	0.010986	0.006561	0.02594	-0.038147	0.04837	-0.12375	0.061188	-0.000458	-0.005341	-0.008087	-0.016937	-0.010376	-0.001221	-0.016174
51.761	-0.015259	0.14191	-0.000763	-0.002136	-0.065918	0.025482	-0.028534	0.016327	0.23529	-0.017395	0.054779	-0.027771	-0.018158	0.1033	-0.10651	-0.022278	0.029602	-0.17685	0.11795	-0.10712	0.082397	0.039215	-0.01297	-0.093689	-0.035706	-0.003967	-0.012207	-0.006256	0.20203	-0.003357	-0.002441	-0.015106
51.762	-0.02243	0.16357	-0.044403	-0.010681	-0.10895	0.025635	-0.023346	0.027618	0.19577	-0.013733	0.070801	-0.016632	0.008545	0.11185	-0.020905	-0.034637	0.010376	-0.14893	-0.083923	-0.099945	0.052338	0.097504	-0.041046	0.028229	-0.067749	0.000458	-0.016785	-0.00824	0.30609	-0.013123	-0.005341	-0.007629
51.763	-0.011292	0.16312	-0.018158	-0.02594	-0.16464	-0.07782	-0.13107	0.032806	0.23483	-0.021973	0.060272	-0.008392	0.002594	0.083923	0.042267	-0.020447	0.016937	-0.16068	-0.17105	-0.11017	-0.10391	0.030823	-0.00061	0.19287	-0.13657	0.000763	0.016174	-0.007477	0.26123	-0.043488	-0.004578	-0.013428
51.764	0.0177	0.15518	0.078125	0.02121	-0.01297	-0.15335	-0.15915	0.032043	0.078278	-0.022278	0.03418	-0.021362	-0.005341	0.04715	-0.007935	-0.03952	0.015869	-0.13489	0.040588	-0.11337	0.014343	-0.12482	-0.002899	0.14313	-0.13672	-0.004883	0.098114	-0.006561	-0.15839	-0.028076	-0.002899	-0.01358
51.765	0.031128	0.078125	0.19867	0.016174	0.14023	-0.1387	-0.12573	0.014648	-0.1973	-0.022583	-0.045929	-0.01709	-0.015869	0.006104	-0.025024	-0.027161	-0.002899	-0.14969	0.15411	-0.15854	0.34454	-0.21027	0.001831	0.07309	-0.094452	0.005798	0.089874	-0.004272	-0.35416	-0.032806	-0.003967	-0.015259
